<svg width="26" height="26" viewBox="0 0 26 26" fill="none" xmlns="http://www.w3.org/2000/svg">
<path d="M22.5469 20.1094H5.07812V4.26562C5.07812 4.15391 4.98672 4.0625 4.875 4.0625H3.45312C3.34141 4.0625 3.25 4.15391 3.25 4.26562V21.7344C3.25 21.8461 3.34141 21.9375 3.45312 21.9375H22.5469C22.6586 21.9375 22.75 21.8461 22.75 21.7344V20.3125C22.75 20.2008 22.6586 20.1094 22.5469 20.1094ZM7.3125 18.0781H8.73438C8.84609 18.0781 8.9375 17.9867 8.9375 17.875V14.2188C8.9375 14.107 8.84609 14.0156 8.73438 14.0156H7.3125C7.20078 14.0156 7.10938 14.107 7.10938 14.2188V17.875C7.10938 17.9867 7.20078 18.0781 7.3125 18.0781ZM11.1719 18.0781H12.5938C12.7055 18.0781 12.7969 17.9867 12.7969 17.875V9.75C12.7969 9.63828 12.7055 9.54688 12.5938 9.54688H11.1719C11.0602 9.54688 10.9688 9.63828 10.9688 9.75V17.875C10.9688 17.9867 11.0602 18.0781 11.1719 18.0781ZM15.0312 18.0781H16.4531C16.5648 18.0781 16.6562 17.9867 16.6562 17.875V11.7305C16.6562 11.6188 16.5648 11.5273 16.4531 11.5273H15.0312C14.9195 11.5273 14.8281 11.6188 14.8281 11.7305V17.875C14.8281 17.9867 14.9195 18.0781 15.0312 18.0781ZM18.8906 18.0781H20.3125C20.4242 18.0781 20.5156 17.9867 20.5156 17.875V7.71875C20.5156 7.60703 20.4242 7.51562 20.3125 7.51562H18.8906C18.7789 7.51562 18.6875 7.60703 18.6875 7.71875V17.875C18.6875 17.9867 18.7789 18.0781 18.8906 18.0781Z" fill="black"/>
</svg>
