<svg width="17" height="17" viewBox="0 0 17 17" fill="none" xmlns="http://www.w3.org/2000/svg">
<path d="M13.4214 7.87096C13.1119 5.43288 11.0237 3.54163 8.50277 3.54163C6.5506 3.54163 4.85485 4.68275 4.08064 6.48121C2.55914 6.93596 1.41943 8.37246 1.41943 9.91663C1.41943 11.8695 3.00823 13.4583 4.9611 13.4583H5.66943V12.0416H4.9611C3.78952 12.0416 2.8361 11.0882 2.8361 9.91663C2.8361 8.92213 3.68539 7.96375 4.72948 7.78029L5.14102 7.70804L5.27702 7.31279C5.77498 5.86 7.01102 4.95829 8.50277 4.95829C10.4556 4.95829 12.0444 6.54708 12.0444 8.49996V9.20829H12.7528C13.5341 9.20829 14.1694 9.84367 14.1694 10.625C14.1694 11.4063 13.5341 12.0416 12.7528 12.0416H11.3361V13.4583H12.7528C14.3153 13.4583 15.5861 12.1875 15.5861 10.625C15.5853 9.98995 15.3716 9.37356 14.9791 8.87431C14.5867 8.37506 14.0383 8.02179 13.4214 7.87096V7.87096Z" fill="white"/>
<path d="M9.2111 9.91671V7.08337H7.79443V9.91671H5.66943L8.50277 13.4584L11.3361 9.91671H9.2111Z" fill="white"/>
</svg>
