<svg width="26" height="26" viewBox="0 0 26 26" fill="none" xmlns="http://www.w3.org/2000/svg">
<path d="M20.5269 12.038C20.0535 8.30913 16.8598 5.41663 13.0042 5.41663C10.0186 5.41663 7.42507 7.16188 6.24098 9.91246C3.91398 10.608 2.1709 12.805 2.1709 15.1666C2.1709 18.1534 4.60082 20.5833 7.58756 20.5833H8.6709V18.4166H7.58756C5.79573 18.4166 4.33757 16.9585 4.33757 15.1666C4.33757 13.6456 5.63648 12.1799 7.23331 11.8993L7.86273 11.7888L8.07073 11.1843C8.83231 8.96238 10.7227 7.58329 13.0042 7.58329C15.991 7.58329 18.4209 10.0132 18.4209 13V14.0833H19.5042C20.6991 14.0833 21.6709 15.055 21.6709 16.25C21.6709 17.4449 20.6991 18.4166 19.5042 18.4166H17.3376V20.5833H19.5042C21.8941 20.5833 23.8376 18.6398 23.8376 16.25C23.8363 15.2788 23.5094 14.3361 22.9093 13.5725C22.3091 12.8089 21.4703 12.2686 20.5269 12.038Z" fill="black"/>
<path d="M14.0876 15.1667V10.8334H11.9209V15.1667H8.6709L13.0042 20.5834L17.3376 15.1667H14.0876Z" fill="black"/>
</svg>
