<svg width="17" height="17" viewBox="0 0 17 17" fill="none" xmlns="http://www.w3.org/2000/svg">
<path d="M9.20817 13.4584V10.625H11.3332L8.49984 7.08337L5.6665 10.625H7.7915V13.4584H9.20817Z" fill="white"/>
<path d="M4.95817 13.4583H6.37484V12.0416H4.95817C3.78659 12.0416 2.83317 11.0882 2.83317 9.91663C2.83317 8.92213 3.68246 7.96446 4.72655 7.781L5.13809 7.70875L5.27409 7.3135C5.77205 5.86071 7.0088 4.95829 8.49984 4.95829C10.4527 4.95829 12.0415 6.54708 12.0415 8.49996V9.20829H12.7498C13.5311 9.20829 14.1665 9.84367 14.1665 10.625C14.1665 11.4063 13.5311 12.0416 12.7498 12.0416H10.6248V13.4583H12.7498C14.3124 13.4583 15.5832 12.1875 15.5832 10.625C15.5821 9.99002 15.3683 9.37374 14.9759 8.87455C14.5835 8.37535 14.0352 8.02202 13.4185 7.87096C13.109 5.43288 11.0215 3.54163 8.49984 3.54163C6.54767 3.54163 4.85192 4.68275 4.07771 6.48121C2.55621 6.93596 1.4165 8.37246 1.4165 9.91663C1.4165 11.8695 3.0053 13.4583 4.95817 13.4583Z" fill="white"/>
</svg>
